<?xml version="1.0" encoding="UTF-8" standalone="no"?>
<!-- Created with Inkscape (http://www.inkscape.org/) -->

<svg
   width="208.46313mm"
   height="137.16559mm"
   viewBox="0 0 208.46314 137.16558"
   version="1.1"
   id="svg1"
   xml:space="preserve"
   sodipodi:docname="prueba.svg"
   inkscape:version="1.4 (86a8ad7, 2024-10-11)"
   xmlns:inkscape="http://www.inkscape.org/namespaces/inkscape"
   xmlns:sodipodi="http://sodipodi.sourceforge.net/DTD/sodipodi-0.dtd"
   xmlns="http://www.w3.org/2000/svg"
   xmlns:svg="http://www.w3.org/2000/svg"><sodipodi:namedview
     id="namedview1"
     pagecolor="#ffffff"
     bordercolor="#000000"
     borderopacity="0.25"
     inkscape:showpageshadow="2"
     inkscape:pageopacity="0.0"
     inkscape:pagecheckerboard="0"
     inkscape:deskcolor="#d1d1d1"
     inkscape:document-units="mm"
     inkscape:zoom="1.3772587"
     inkscape:cx="423.66768"
     inkscape:cy="287.16464"
     inkscape:window-width="1920"
     inkscape:window-height="991"
     inkscape:window-x="-9"
     inkscape:window-y="-9"
     inkscape:window-maximized="1"
     inkscape:current-layer="layer6"
     showgrid="false"><inkscape:page
       x="9.5376443e-08"
       y="4.646573e-14"
       width="208.46313"
       height="137.16557"
       id="page1"
       margin="0 0 0"
       bleed="0" /></sodipodi:namedview><defs
     id="defs1"><filter
       style="color-interpolation-filters:sRGB;"
       inkscape:label="Drop Shadow"
       id="filter2"
       x="-0.20965211"
       y="-0.12323481"
       width="1.4775409"
       height="1.2978175"><feFlood
         result="flood"
         in="SourceGraphic"
         flood-opacity="0.600000"
         flood-color="rgb(0,0,0)"
         id="feFlood1" /><feGaussianBlur
         result="blur"
         in="SourceGraphic"
         stdDeviation="3.000000"
         id="feGaussianBlur1" /><feOffset
         result="offset"
         in="blur"
         dx="2.000000"
         dy="3.000000"
         id="feOffset1" /><feComposite
         result="comp1"
         operator="in"
         in="flood"
         in2="offset"
         id="feComposite1" /><feComposite
         result="fbSourceGraphic"
         operator="over"
         in="SourceGraphic"
         in2="comp1"
         id="feComposite2" /><feColorMatrix
         result="fbSourceGraphicAlpha"
         in="fbSourceGraphic"
         values="0 0 0 -1 0 0 0 0 -1 0 0 0 0 -1 0 0 0 0 1 0"
         id="feColorMatrix2" /><feFlood
         id="feFlood2"
         result="flood"
         in="fbSourceGraphic"
         flood-opacity="0.600000"
         flood-color="rgb(0,0,0)" /><feGaussianBlur
         id="feGaussianBlur2"
         result="blur"
         in="fbSourceGraphic"
         stdDeviation="3.000000" /><feOffset
         id="feOffset2"
         result="offset"
         in="blur"
         dx="2.000000"
         dy="3.000000" /><feComposite
         id="feComposite3"
         result="comp1"
         operator="in"
         in="flood"
         in2="offset" /><feComposite
         id="feComposite4"
         result="comp2"
         operator="over"
         in="fbSourceGraphic"
         in2="comp1" /></filter></defs><g
     id="layer6"
     transform="translate(-1.5368695,-38.421737)"><path
   d="m 25.742561,76.651357 c -1.536869,7.780401 -1.536869,11.430466 -1.536869,11.430466 l 1.536869,2.113195 -0.192108,1.536869 1.921086,0.864489 1.440815,-0.576326 c 0,0 1.344761,1.344761 1.728978,1.344761 0.384217,0 2.305304,-0.09606 2.305304,-0.09606 l 1.344761,1.152652 2.305304,0.192109 -1.248707,-1.632924 0.672381,-0.960543 1.440815,-1.728978 v -1.34476 l 0.67238,-0.576326 1.344761,-1.53687 2.497412,-0.480271 0.09605,-9.221216 -0.09605,-0.864489 z"
   id="USA_WEST"
   inkscape:label="USA_WEST" /><path
   d="m 35.828266,97.687256 c 0,-3.457956 -0.192109,-5.571151 -0.192109,-5.571151 l 1.248707,-0.384218 0.09605,-2.401358 1.728978,-0.576326 0.288163,-2.017141 3.073738,-0.192109 -0.09605,-10.085705 2.20925,0.960544 -0.09605,0.768434 2.977685,-0.864489 1.34476,4.514554 -0.384217,1.344761 1.056598,0.768434 1.440815,-1.056597 -0.384218,-0.480272 3.073739,-1.632924 3.55401,-0.192108 0.576326,-1.53687 1.632924,-0.09605 0.09605,2.017141 1.53687,1.632924 -1.53687,1.248706 -0.192108,-1.825032 -1.056598,-0.09606 -1.632924,2.593467 0.480272,1.152652 -3.457956,2.593467 0.09605,1.248707 0.576326,0.192108 -3.55401,3.265847 -0.09605,0.768435 -0.480272,0.384217 0.480272,4.034282 -1.056598,0.480272 -1.248706,-1.152652 0.384217,-1.728978 -1.536869,-1.440815 -1.152652,0.288163 -4.898771,-0.67238 z"
   id="EAST_US"
   inkscape:label="USA-WEST" /><path
   d="m 39.574385,63.395859 -1.248706,12.967335 c 0,0 -12.583118,1.152652 -12.967335,-0.288163 -0.384217,-1.440815 -2.113196,-4.994825 -2.113196,-4.994825 l 0.768435,-1.248707 1.152652,-0.576326 -0.288163,-1.152652 -1.248706,-0.768434 -0.480272,-3.842173 z"
   id="ALBERTA" /><path
   d="m 39.862548,63.972185 -1.152652,12.294955 3.842173,0.09605 1.440815,1.056598 0.67238,0.67238 2.20925,-0.864489 1.728978,4.610608 -0.480272,1.056598 0.960544,0.960543 1.248706,-0.864489 -0.288163,-1.344761 0.768435,0.384218 2.689521,-1.53687 -0.576326,-1.056597 -0.960543,0.384217 -1.440815,0.288163 0.67238,-5.379043 -1.536869,-1.921086 0.864489,0.09605 -1.152652,-1.632924 1.152652,-1.056597 H 48.12322 l -0.480271,0.480271 -0.672381,-0.480271 -1.152652,-0.288163 -2.401358,-2.401359 0.864489,-3.361901 z"
   id="ONTARIO" /><path
   d="m 56.672056,80.397476 -3.265847,0.384217 -0.768435,-1.248706 -1.921087,0.480272 0.288163,-5.379043 1.344761,-1.825032 -0.768435,-1.632924 0.768435,-0.864489 1.152652,0.288163 0.192109,-0.864489 0.480271,-0.67238 -0.576326,-3.265847 0.576326,-0.480272 0.768435,-0.480272 -0.67238,-2.113195 2.977684,0.864489 1.056598,1.248706 0.576326,2.689521 1.632923,-0.480271 0.768435,-1.344761 0.768435,2.305304 0.480271,-0.09605 0.09605,1.34476 1.056597,0.672381 0.864489,1.248706 0.768435,-0.384217 0.960543,0.384217 -1.152652,0.67238 0.480272,0.576326 0.768434,-0.192108 v 1.34476 l -2.113195,1.248707 -1.248706,0.09605 -0.480272,0.864489 -2.113195,0.768435 -0.864489,-0.480272 -2.20925,1.152652 0.384218,0.864489 h 0.480271 l 0.672381,-1.152652 1.056597,0.288163 0.576326,2.689521 0.576326,0.864489 0.672381,-0.864489 0.384217,0.576326 -1.536869,1.728978 -1.53687,-1.34476 v -2.017141 l -1.056597,-0.576326 z"
   id="QUEBEC" /><path
   d="m 40.919145,112.67173 c -1.248706,-1.53687 -1.825032,-1.53687 -1.825032,-1.53687 l -0.864489,0.0961 -1.921086,-6.33959 -4.610608,-1.92109 -0.192109,-0.86448 -0.768435,-0.38422 1.152652,-1.24871 -2.113195,-1.248705 -1.440815,0.576326 0.192109,-1.632924 -0.768435,-0.67238 -0.576326,-3.842173 -1.536869,-0.768435 0.09605,-1.056597 1.728978,0.768434 1.536869,-0.67238 1.728978,1.34476 h 2.497413 l 0.768435,1.344761 h 1.440815 l 0.480271,3.457956 -0.768434,1.632924 1.34476,2.017143 h 2.785576 l 0.768434,-1.34476 1.53687,-0.0961 -0.192109,2.20925 -0.960543,0.57633 -0.09605,0.76843 -0.960543,0.0961 0.09605,0.48027 0.768434,0.38422 0.480272,0.86449 v 1.15265 l -0.576326,0.096 -0.09605,0.76844 -0.576325,0.38421 -0.09605,1.63293 0.576326,0.57632 1.152652,-0.67238 0.576326,0.38422 0.192109,1.53687 z"
   id="CARIBBEAN"
   inkscape:label="CARIBBEAN" /><path
   d="m 40.246765,116.60996 -0.288163,-2.20925 1.632924,-1.72898 0.288163,-2.59347 1.248706,-0.0961 2.305304,-1.72898 0.960543,-0.0961 1.632924,-0.86449 0.576326,1.0566 1.344761,-0.19211 2.113195,0.67238 h 2.113195 l 2.113196,2.01714 1.825032,1.15265 1.248706,0.38422 3.457956,0.86449 -0.960543,2.20925 -2.785576,0.19211 -0.192108,0.76843 -3.457956,-0.38422 -0.864489,-2.49741 -1.632924,1.44082 -1.344761,-0.48028 0.384218,1.92109 -1.728978,0.67238 -1.825033,-1.15265 -0.960543,1.72898 0.384217,1.53687 -1.825032,0.48027 -0.768435,-0.76844 -2.593467,-0.96054 -1.152652,0.0961 z"
   id="VENEZUELA" /><path
   d="m 39.670439,116.22574 c -1.34476,4.03428 -0.768434,3.84218 -0.768434,3.84218 l 0.09605,1.15265 v 1.82503 l 1.056597,0.67238 0.768435,0.67238 -0.67238,1.24871 c 0,0 1.536869,0.57632 1.728978,0.96054 0.192108,0.38422 0.864489,2.49741 0.864489,2.49741 l 2.497412,1.92109 1.825033,1.24871 1.152652,-0.19211 2.497412,4.03428 0.192109,-2.20925 1.248706,1.34476 0.384218,-0.57633 2.209249,0.38422 0.576326,1.44082 0.192109,-0.67238 1.056598,0.96054 h 1.440815 l -0.192109,1.82503 -0.864489,0.86449 1.056598,0.28816 2.593467,-1.82503 -0.960544,-3.26585 -1.728978,-0.96054 0.09605,-1.53687 -0.960544,-1.53687 -0.288163,-1.34476 -0.960543,-0.096 -0.288163,-1.72898 -2.113195,0.19211 -0.288163,-0.76844 -1.921087,0.0961 0.09605,-1.24871 -0.480271,-0.28816 -4.322445,1.15265 -0.768435,-1.24871 1.921087,-1.2487 -3.265848,-0.57633 -1.152652,-0.86449 v -0.96054 l 1.248707,-0.0961 0.192108,-1.44081 1.248707,-0.38422 -0.672381,-0.67238 -1.921086,-0.67238 -1.056598,-0.57632 -0.864489,0.1921 z"
   id="PERU" /><path
   d="m 61.85899,144.27361 1.536869,-3.1698 1.53687,-0.48027 -0.384218,-2.97768 5.379043,-2.88163 1.728978,-2.88163 0.288163,-4.61061 1.248706,-1.92109 1.536869,-0.48027 c 0,0 1.632924,-3.3619 -0.768434,-4.4185 -2.401359,-1.0566 -5.76326,-2.01714 -5.76326,-2.01714 l -4.034282,-0.96054 -2.017141,-0.86449 1.632924,-0.19211 -0.960544,-3.07374 -1.632923,2.20925 -5.09088,0.76844 -1.536869,-2.68953 -1.440815,0.86449 -2.689522,2.01714 -2.017141,-0.57632 -1.440815,1.24871 0.960544,1.63292 -2.88163,1.15265 -2.017141,2.68952 4.130336,1.34476 -1.248706,1.44082 0.768434,1.15265 3.746119,-1.63292 3.554011,2.78557 1.728978,0.19211 0.384217,1.82503 1.248706,0.28817 0.864489,4.22639 1.056598,0.096 1.344761,2.97768 -0.384218,2.40136 -1.056597,0.96055 0.960543,0.48027 v 0.76843 l 1.056598,0.38422 z"
   id="BRAZIL"
   inkscape:label="BRAZIL" /><path
   d="m 57.344436,165.69372 -2.401358,0.76844 -2.593467,-1.72898 -1.248706,-0.19211 -2.977685,-2.40136 -2.497412,-6.24353 1.248706,-5.28299 -0.864489,-0.38421 1.248706,-18.25033 0.768435,-0.19211 2.401358,4.32245 0.384218,-2.01714 1.152652,0.96054 2.113195,-0.19211 2.113195,1.92109 1.825033,0.096 -0.192109,2.68952 3.169793,-1.82503 -2.017141,2.97769 0.960543,0.096 0.09605,1.34476 1.152652,0.0961 0.192108,1.53687 0.864489,0.28816 -4.418499,1.72898 1.056598,1.53687 -0.672381,1.53686 -2.977684,0.38422 0.192109,1.34476 -0.864489,0.76844 -1.152652,-0.19211 -0.288163,3.3619 v 1.53687 c 0,0 -0.09605,2.1132 -0.672381,3.55401 -0.576326,1.44081 1.53687,4.4185 1.53687,4.4185 z"
   id="ARGENTINA" /><path
   d="m 44.284278,64.388795 c 0.06792,-0.271682 2.580984,-2.920589 2.580984,-2.920589 l 1.222573,-0.203761 -0.475446,-1.969699 1.562177,0.950889 1.426334,-1.698017 1.901778,-0.407524 -0.543364,-2.241383 -0.543367,-0.611286 -1.222571,1.426335 -1.01881,0.06792 0.203761,-1.154652 -1.222571,-0.203761 -1.222573,-2.241384 1.290492,-1.426334 0.611288,-0.271682 0.747125,-1.494256 -0.747125,-0.203761 -0.679207,0.950889 -1.222573,-0.475443 0.203761,0.950889 -1.358413,2.24138 0.815048,1.630098 c 0,0 -0.611285,1.426335 -0.950888,0.950889 -0.339603,-0.475446 -0.815049,-1.426334 -0.815049,-1.426334 l -0.543364,0.06792 -0.135843,1.630095 -2.92059,-0.815049 -2.309301,1.154652 -2.03762,0.475446 -0.950889,-1.426334 -0.747128,0.271682 -2.920589,-1.562174 -0.475443,-0.950892 -2.988511,1.01881 -0.407525,0.475446 -2.716826,0.339603 -4.346923,-0.543364 -0.339603,8.625925 z"
   id="NORTHWEST"
   inkscape:label="NORTHWEST" /><path
   d="m 21.25917,54.81198 -4.822368,-1.358414 -0.339603,-0.950888 -2.241382,1.01881 -1.426334,-0.203761 -2.173462,1.290492 1.426334,2.173462 0.543366,-0.06792 -0.475445,0.950888 -0.950889,-0.475443 -1.9017793,0.06792 0.407524,2.445144 1.4263343,-0.407522 -0.7471275,1.222571 -1.6980167,-0.407525 -1.6980167,2.92059 0.9508892,-0.135842 0.203762,1.154652 h 0.9508894 l 0.203762,1.154652 2.0376203,-0.271684 -0.9508895,1.698016 -0.7471275,0.271685 -1.6980167,1.358413 0.9508895,0.611285 1.7659372,-1.765937 2.173462,-1.290492 2.580985,-1.90178 -0.06792,1.698016 1.9697,-0.407522 0.339603,-0.747127 3.328113,2.037619 1.630096,2.03762 0.747127,2.03762 2.105541,-1.358413 -0.06792,-1.01881 -1.290492,-0.815049 -0.747128,-4.007318 -2.03762,-0.06792 z"
   id="ALASKA" /><path
   d="m 67.334087,68.29463 0.960543,-0.04803 0.288163,-2.305304 0.960543,-2.54544 -0.09605,-1.392788 2.785576,-0.528298 0.624353,-1.248707 0.576326,0.480272 0.528299,-0.624353 1.104625,-0.04803 -0.09606,-1.584897 1.152652,0.384217 1.248707,-0.912516 -0.912517,-0.864489 0.480272,-1.488842 1.056598,1.777005 1.200679,-0.624353 -0.480272,-1.344761 -0.624353,-0.09605 -0.768435,-1.104625 0.720408,-0.576326 0.67238,0.672381 0.576326,-1.008571 0.816462,-0.288163 -0.240136,-1.488842 -0.864489,0.67238 c 0,0 0.240136,-1.536869 0.33619,-1.873059 0.09605,-0.33619 -0.67238,-1.104625 -0.67238,-1.104625 l 0.384217,-1.921087 1.488842,-1.056597 0.336191,-1.248707 -1.248707,0.576326 h -0.960543 l -0.144081,0.720408 -2.161223,0.04803 -0.384217,-0.816462 -1.488842,0.384218 2.497412,-1.296734 -1.680951,-0.528299 0.04803,-0.240136 -5.09088,-0.960543 -0.816462,0.576326 -0.384217,-0.288163 -0.384218,0.624353 -2.209249,0.528299 0.528299,0.768435 -2.305304,1.728978 -0.672381,-0.384218 -0.04803,0.576326 -1.056597,-0.192108 -0.480272,0.480271 -0.816462,-0.33619 -0.33619,0.720408 -1.536869,0.240136 0.04803,0.67238 -1.488842,-0.09605 0.33619,0.768434 -0.288163,0.480272 0.720407,0.09605 -0.432244,0.624353 -1.392788,-0.144081 -0.33619,0.192109 -1.056598,-0.04803 0.33619,0.864489 1.344761,-0.144081 -1.87306,1.344761 0.720408,0.720407 0.576326,-0.192109 2.065168,0.480272 1.104625,-0.864489 1.00857,0.67238 0.432245,0.04803 1.488842,2.689522 -0.04803,1.00857 1.152652,0.960544 -1.248706,0.240135 1.873059,0.864489 -0.480272,1.584897 -0.67238,0.528299 0.33619,1.104625 -0.09605,1.488842 1.825032,3.21782 0.528299,-0.04803 v 0.960543 l 0.720407,-0.384217 z"
   id="GREENLAND"
   inkscape:label="GREENLAND" /><path
   d="m 122.59681,160.90407 3.39603,0.0679 0.20376,-1.42634 0.81505,-0.27168 1.08673,-2.6489 1.08674,-1.56218 0.20376,-2.17346 0.3396,-0.40752 -0.81505,-0.33961 1.42633,-2.92059 0.47545,0.88297 0.20376,-3.19227 -0.88297,-1.49426 -1.90178,2.78475 -1.76593,1.90178 -2.85267,0.3396 -0.61129,1.56218 1.22258,1.42633 -0.47545,0.40753 -0.47544,0.27168 -0.40753,1.9697 -1.08673,0.95089 v 1.22257 l 0.81505,0.67921 z"
   id="MADAGASCAR" /><path
   d="m 106.14004,166.07794 1.87306,-0.67238 0.24013,-0.24014 1.44082,-0.14408 1.53687,-1.00857 1.777,-0.48027 0.57633,0.14408 -0.0961,-0.38422 -0.33619,-0.1921 1.24871,-1.29674 -0.5283,-0.14408 0.86449,-1.24871 h 0.48027 l 0.19211,-1.10462 -0.62435,-0.14408 1.15265,-2.25728 1.777,-1.777 -0.7204,-0.48028 0.43224,-2.35333 1.0566,-0.7204 h 0.19211 l 2.06517,-2.54544 -0.38422,-4.51456 -3.40993,1.5849 0.38422,1.34476 -0.62436,1.82503 -0.67238,0.0961 -0.48027,-0.96055 0.28816,-1.53687 -0.52829,-0.62435 0.24013,-1.15265 -1.92109,-2.30531 -1.44081,0.86449 0.048,1.29674 0.7204,0.096 -0.38421,1.53687 -1.15265,-1.00857 -2.40136,-0.24014 -1.53687,-0.7204 0.72041,-1.0566 -0.76844,-0.62435 0.14408,-0.91252 -0.96054,-0.24014 -1.77701,0.67238 -0.33619,-0.67238 0.048,-1.2487 c 0,0 -0.81646,0.14408 -1.39279,0.24013 -0.57632,0.0961 -1.96911,-1.05659 -1.96911,-1.05659 l -0.62435,0.52829 1.29673,1.92109 -1.0566,1.63293 0.86449,2.16122 -0.81646,1.58489 -0.72041,2.92966 0.62435,0.57633 -0.33619,1.48884 1.34476,1.34476 0.72041,1.0566 -0.0961,1.53687 0.86449,1.44081 -0.0961,1.53687 0.57633,0.76844 0.38422,-0.14409 -0.14409,1.29674 0.5283,0.76843 0.14408,1.92109 0.24014,0.76843 -0.43224,0.48028 z"
   id="SOUTH_AFRICA"
   inkscape:label="SOUTH_AFRICA" /><path
   d="m 100.4248,140.23932 1.34476,-0.43224 0.91252,1.0566 2.16122,-0.24014 -0.24013,1.72898 2.73755,-0.67238 0.76843,1.96911 -0.19211,1.20068 3.40993,0.62436 0.91252,1.10462 0.86449,-1.34476 c 0,0 -1.29674,-1.20068 -1.24871,-1.00857 0.048,0.19211 1.44081,-1.29673 1.44081,-1.29673 l -0.57632,-3.98626 1.24871,0.43225 -0.38422,-2.35334 1.58489,-0.28816 1.68096,-3.12176 -1.34477,-0.62436 -0.81646,0.48027 -1.777,-0.43224 -0.5283,-0.81646 -0.86449,0.81646 -1.44082,-1.92109 v -1.58489 l -0.96054,-0.28817 -0.76843,-0.7204 -0.38422,-1.63293 -0.38422,0.96055 -4.27442,2.88163 0.048,1.2487 0.43225,0.38422 -0.28817,2.25728 -0.57632,0.38421 -0.81646,-0.91251 -0.3362,0.81646 -1.34476,-0.24014 -0.76843,0.28817 -0.816462,-0.76844 -0.288163,0.57633 0.528299,0.91251 -1.296734,1.34476 z"
   id="CONGO" /><path
   d="m 115.93758,149.31646 h 0.76843 l 0.62436,-2.16122 -0.38422,-1.15266 2.88163,-1.44081 0.048,-1.15265 -0.5283,-0.48027 -0.24014,-1.5849 0.38422,-1.63292 1.00857,-0.48028 0.62435,-0.81646 4.70667,-4.99482 2.44938,-5.52313 c 0,0 0.33619,-1.48884 -0.81646,-0.57632 -1.15265,0.91251 -3.65007,0.67238 -3.65007,0.67238 l -1.96911,0.24013 0.096,-1.63292 -1.777,-2.06517 -0.0961,-0.28816 -0.43225,-0.24014 -0.62435,-1.44081 0.14408,-1.0566 -0.62435,-0.5283 -0.67238,-1.87306 -0.86449,-0.43224 -7.5883,-0.14408 -0.52829,1.48884 -0.67238,0.096 0.1921,2.59347 -0.5283,0.14408 0.67239,0.81646 -1.0566,1.96912 1.0566,2.92965 1.58489,1.10463 0.19211,1.34476 1.20068,2.01714 0.96054,-0.91252 0.62436,1.00857 1.44081,0.24014 1.20068,-0.5283 1.15265,0.86449 -1.48884,3.12177 -1.68095,0.28816 0.33619,2.25728 -1.29673,-0.33619 0.7204,3.65006 2.01714,2.06517 0.048,1.44081 0.43225,0.38422 -0.43225,1.72898 z"
   id="EAST_AFRICA"
   inkscape:label="EAST_AFRICA" /><path
   d="m 108.68548,120.16397 c -1.72898,0.14408 -2.20925,-0.48027 -2.20925,-0.48027 l -0.048,-0.86449 -1.0566,0.19211 -0.048,-0.76844 -0.91252,-0.048 -0.81646,-0.48028 -1.0566,0.43225 -0.24014,-0.67238 -1.2487,0.38422 -0.43225,-0.86449 -1.248703,-0.33619 -0.240136,-0.76844 -0.288163,-2.78557 -0.720408,-0.38422 0.240136,-0.96054 1.248706,-0.43225 -0.960543,-1.00857 1.728981,-1.53687 1.05659,0.0961 0.48028,0.86448 1.53687,0.5283 1.53687,-0.86449 3.07373,0.14409 0.67238,0.86448 4.70667,0.81647 0.76843,-0.38422 0.62435,0.24014 0.57633,-0.5283 0.76843,1.15265 -0.62435,1.48884 -1.44081,-0.57633 2.64149,3.6981 -0.24014,0.62435 0.72041,1.68095 -7.7804,-0.048 z"
   id="EGYPT"
   inkscape:label="EGYPT" /><path
   d="m 100.2327,108.25323 v 0.76844 l -1.632928,1.20068 1.104625,1.29673 -1.584897,0.28816 v 1.0566 l 0.960544,0.5283 0.288163,3.21782 1.584893,0.57633 0.14408,0.81646 1.20068,-0.57633 0.43225,1.00857 0.86449,-0.81646 1.53687,0.62435 0.33619,0.96055 0.96054,-0.38422 0.48027,1.20068 1.53687,0.24013 0.0961,2.35333 -0.72041,0.24014 0.62435,0.76844 -0.86449,2.01714 0.38422,1.53687 -4.99483,3.60203 0.38422,1.29674 0.48027,0.38421 -0.38421,2.20925 -0.48028,0.33619 -0.86448,-1.05659 -0.5283,0.91251 -1.48885,-0.24013 -0.624349,0.43224 -0.624353,-0.67238 0.432244,-2.01714 c 0,0 -2.593467,0.91252 -2.88163,0 -0.288163,-0.91252 -0.528299,-1.63292 -0.528299,-1.63292 l -2.641494,0.14408 c 0,0 -0.384217,1.0566 -0.960543,0.96054 -0.576326,-0.0961 -4.754689,0.0961 -4.754689,0.0961 l -1.056598,-1.20068 -0.912516,-0.24014 -0.672381,-1.15265 h -0.960543 l 0.09605,-1.39279 -0.67238,-0.38422 -0.33619,-1.05659 -1.200679,-0.5283 -0.528299,-1.29674 -0.240136,-0.67238 c 0,0 1.440815,-3.50598 0.720408,-4.99482 -0.720408,-1.48884 0,-2.59347 0,-2.59347 l 0.480271,-0.0961 -0.240136,-0.76844 0.384218,-0.67238 0.816462,-0.19211 -0.336191,-0.57632 0.624354,-0.62436 0.912516,-3.3619 1.056597,-0.86449 -0.09605,-1.44081 2.833603,-0.57633 2.689521,-0.67238 0.33619,0.38422 1.152652,-1.0566 2.305304,-0.62435 0.240136,-0.33619 2.257277,-0.048 0.67238,1.0566 0.912516,0.43224 0.144082,1.29674 0.624353,-0.0961 z"
   id="NORTH_AFRICA"
   inkscape:label="NORTH_AFRICA" /><path
   d="m 84.968759,107.31466 1.222571,0.13584 0.135842,-1.15465 0.882968,-1.01881 0.747127,0.27168 1.630096,-2.24138 -0.679207,-1.9697 0.203764,-0.81505 -0.339604,-0.543363 1.901778,-3.531875 1.154652,0.13584 0.407524,1.086731 1.358413,-0.747128 -0.475445,-1.154649 0.611288,-1.358414 -0.679209,-0.611288 -0.339604,-2.377223 1.290495,-1.018809 -3.328114,-3.735637 -1.562174,0.543365 0.407524,0.407524 -0.815049,0.543367 v 0.815046 l -1.630095,-0.271682 -0.475446,0.882968 -0.203761,-0.679207 -0.88297,1.222573 -2.648905,0.06792 -0.407524,0.950888 1.22257,0.339604 0.815049,1.833858 0.88297,0.13584 -0.271684,1.494256 0.475445,0.815049 -0.679206,0.407524 -0.339604,0.815046 -3.260193,0.06792 -0.950888,-0.950889 -1.290492,1.290492 1.426334,2.920593 -1.426334,4.00732 1.358413,0.40752 0.271682,1.22257 2.105541,-0.27168 0.06792,-0.40752 z"
   id="EU_WEST"
   inkscape:label="EU_WEST" /><path
   d="m 95.021018,103.1715 2.716826,1.35841 1.630095,-1.83386 -0.06792,-1.29049 -0.271685,-0.61129 0.815049,-0.13584 0.611287,0.40753 0.74713,-0.54337 -1.494259,-2.648904 -0.950889,0.06792 -0.543364,-1.698016 0.747125,-0.271683 2.716827,1.90178 0.0679,2.105541 0.74713,0.407522 0.54337,0.47544 0.54336,3.46396 0.88297,0.74713 1.01881,-0.54337 0.47544,0.74713 0.61129,-0.54337 -0.74713,-0.6792 -0.0679,-1.69802 -1.01881,-1.15465 1.08673,-0.33961 1.2905,-1.222565 v -1.154652 l 1.29049,-1.426334 1.22257,-4.07524 -1.01881,-1.154652 -0.27168,-1.426334 0.47544,-1.426335 -0.81504,-1.290492 -0.47545,0.06792 -0.54337,-1.086731 -0.61128,-0.203763 -0.67921,0.950891 -0.88297,1.086731 -0.40752,1.426332 0.40752,0.679209 -0.40752,0.815046 -2.58099,-0.06792 0.13585,-1.086731 -0.54337,-0.339603 0.54337,-1.426332 -0.67921,-0.611288 -0.40753,0.679207 -2.037617,0.135842 -0.203763,0.882968 -0.407522,0.950891 h -1.494256 l -0.475445,0.543364 -1.222571,-0.815049 -2.241383,1.018813 0.475445,2.445144 0.543364,0.339603 -0.543364,1.833856 0.407525,0.88297 h 1.01881 l 0.271682,1.222571 1.018809,0.271682 0.815049,0.815049 0.815047,0.203764 0.135842,1.018808 0.611285,0.95089 -0.679206,1.76594 -1.630095,-0.47545 z"
   id="EU_SOUTH"
   inkscape:label="EU_SOUTH" /><path
   d="m 105.88833,86.802615 c -0.88297,-0.882967 1.69801,-2.580984 1.69801,-2.580984 l 0.81505,-1.969698 -0.54337,-1.018813 -0.6792,-4.143161 -0.95089,0.135843 -1.35841,-0.815049 c 0,0 -2.98852,-0.339603 -3.32812,0.475446 -0.3396,0.815049 -3.531874,0.271682 -3.531874,0.271682 l -0.475443,-2.309302 -0.203763,-0.88297 -1.630096,0.543367 0.679207,1.765937 0.475446,0.203761 -0.271685,1.698017 -2.445144,2.920589 v 0.882968 l -0.882968,1.222573 -0.950888,0.06792 0.135839,1.01881 -0.611285,0.475443 v 0.543367 l -1.154652,1.086731 3.328114,3.939397 h 1.494253 l 0.475445,0.543367 0.882971,-0.271682 1.494252,-0.06792 0.339604,-1.833859 2.173457,-0.203761 0.47545,-0.747128 0.67921,0.815047 -0.67921,1.358413 0.67921,0.407524 -0.13585,0.950892 2.37723,0.06792 0.47544,-0.950888 -0.47544,-0.679207 z"
   id="NORTH_EU"
   inkscape:label="NORTH_EU" /><path
   d="m 97.33032,73.89769 2.037619,1.833856 1.290491,-0.271682 -0.27168,-1.358413 1.29049,-0.203761 -0.6792,-1.494255 1.69801,-0.815049 c 0,0 -0.47544,-4.211082 -0.88297,-4.482764 -0.40752,-0.271682 1.56218,-0.135843 1.56218,-0.135843 l -0.61129,-1.698016 c 0,0 3.32812,-1.562174 2.30931,0.339603 -1.01881,1.90178 -0.95089,3.599797 -0.95089,3.599797 l 2.98851,-0.543365 0.13584,-0.339603 1.42633,0.611286 0.88297,0.747127 v -3.531875 c 0,0 -1.42633,-9.440973 -0.3396,-9.644734 1.08673,-0.203764 -2.10554,-0.815049 -2.10554,-0.815049 l -0.95089,0.611285 -0.88297,-0.475446 -1.22257,0.815049 -1.08673,0.271682 -0.0679,1.154653 -1.08673,-0.271682 0.0679,0.882967 -2.309297,-0.06792 -2.105541,4.346924 -1.01881,1.358413 h -0.815049 l 0.135843,1.086731 -1.01881,0.611286 -0.543367,-0.815047 -0.815046,1.562174 -0.882971,0.339604 1.01881,2.105541 0.135843,1.562176 1.22257,2.03762 1.290495,-0.407524 0.747125,-1.086731 0.611288,1.290492 z"
   id="ESCANDINAVIA" /><path
   d="m 105.07328,76.410753 -0.47545,-1.698017 0.47545,-0.882967 -0.13585,-0.543367 0.81505,-1.01881 0.54337,1.154652 h 1.01881 l -0.13584,-1.154652 -1.01881,-0.679206 -0.27168,-1.494256 3.59979,-0.407522 0.40752,-3.531875 -1.08673,-6.384544 0.47545,-3.463954 2.24138,1.086731 h 2.58099 c 0,0 3.32811,2.784748 0,2.784748 -3.32812,0 -3.05643,0.339603 -3.05643,0.339603 l 1.96969,1.358413 0.20377,1.426334 1.35841,-0.135842 -0.0679,-1.290492 -0.27168,-0.339603 0.47544,-0.271682 0.74713,0.611285 1.56218,-0.747128 1.63009,-0.679206 -0.81505,-0.543364 0.20377,-1.426335 -0.61129,-0.339603 1.56217,-0.339603 0.95089,0.815046 -0.13584,0.88297 2.85267,-1.698016 1.08673,-0.06792 0.3396,-0.882967 1.35842,0.747125 1.76593,-0.06792 c 0,0 0.67921,-1.290495 0.9509,-1.290495 0.27168,0 2.6489,0.407524 2.6489,0.407524 l 0.74713,0.543367 0.3396,3.19227 -1.6301,3.599796 0.33961,0.815049 -0.27169,0.475443 0.47545,3.735639 0.61129,0.135839 -0.74713,2.309305 1.9697,1.901777 -0.67921,0.950889 0.33961,2.309304 -1.69802,1.426335 -0.88297,1.154649 -1.76594,-0.339603 -0.20376,-0.543364 -2.78475,1.426334 -1.83386,0.543364 -0.20376,0.882971 -0.61128,1.494252 0.61128,2.309305 1.15465,2.03762 -0.20376,0.882967 -0.88297,0.271685 -0.54336,1.833856 1.69801,3.328114 0.95089,0.13584 -0.61128,2.377223 0.47544,1.086731 -0.95089,0.339603 -3.59979,1.290495 -0.74713,-0.611288 0.81505,-0.407522 -0.40752,-1.562177 -2.17347,-1.765937 -0.74712,0.543367 -1.2905,-2.445144 V 91.3533 l 1.49426,-0.950888 -0.0679,-0.407525 -3.5998,0.815049 0.3396,1.086731 0.88297,0.339603 -1.35841,1.698017 -0.95089,-0.543364 -0.40752,-1.765938 -1.42634,-0.339603 -1.01881,1.630095 -1.35841,-1.562177 0.3396,-2.445144 -0.61128,-1.426334 -0.67921,0.06792 -0.81505,-0.950889 -0.81505,0.339603 0.0679,-1.290492 1.90177,-1.562176 0.74713,-1.969699 -1.42633,-5.026131 -0.88297,0.271685 z"
   id="UKRAINE"
   inkscape:label="UKRAINE" /><g
   id="GREAT_BRITAIN"
   style="display:inline"
   inkscape:label="GREAT_BRITAIN"><title
     id="title8">GREAT_BRITAIN</title><path
     d="m 80.621835,71.588386 1.698016,-0.407525 0.543367,1.01881 -0.747128,0.203764 v 1.290492 l 0.815049,-0.203761 0.882968,-0.271682 0.543364,0.950888 -0.679207,1.426335 -1.086728,0.679206 0.203761,0.815046 1.01881,-0.339603 1.01881,1.086731 -0.06792,0.475446 1.698017,2.309302 -0.203761,2.241383 1.562177,-0.611285 0.815046,0.611285 -0.407525,1.494253 -0.815046,0.339606 v 0.679206 l 0.203761,0.611286 -1.494256,0.543364 -1.494252,0.06792 -0.611288,0.135843 -0.475443,0.543364 -0.339604,-0.882968 -1.01881,0.611286 -0.88297,0.475443 -0.339603,0.543366 -0.950889,-0.543366 0.815049,-1.01881 1.290492,-1.15465 -1.222573,-0.88297 0.543367,-0.882967 0.611285,-0.747128 -0.203761,-0.611286 -0.475446,-0.679206 0.203761,-0.611288 0.747128,0.475445 0.135843,-0.815048 -0.882971,-1.15465 -0.679206,0.339603 -0.13584,-0.88297 0.407525,-0.882967 -0.135843,-0.543367 -0.882967,-0.203761 -0.407525,-0.950889 -0.407524,0.06792 -0.271682,-1.018812 0.815046,-0.339603 -0.339603,-0.679207 -0.543365,0.06792 -0.407524,-0.475443 1.290492,-0.950891 z"
     id="UK2" /><path
     d="m 76.614516,85.851726 2.105541,-1.290492 0.06792,-0.475445 -0.339603,-0.679207 -0.339604,-1.833859 0.88297,0.06792 1.154653,-0.203761 0.339603,-0.543367 -0.203764,-0.815046 v -0.543367 h -0.407524 l -0.271682,-0.475443 -0.475443,0.06792 -1.154652,-0.203764 -1.154653,1.290492 -0.339603,-0.407522 -1.154652,1.01881 0.271685,0.339604 -0.407525,0.407521 0.475443,0.611288 -0.271682,0.339604 1.698016,0.815046 -0.815046,0.203764 -0.679206,0.815046 -0.815049,0.339606 0.407524,0.679206 0.543364,-0.06792 z"
     id="UK1" /></g><path
   d="m 132.79511,111.56711 1.00857,-0.57633 0.19211,-0.96054 1.87306,-1.00857 -0.33619,-1.63293 0.19211,-0.81646 -1.24871,-0.96054 0.0961,-2.01714 -0.91252,-1.0566 v -3.457956 l -3.31387,-2.353332 -0.24014,0.816462 -1.29673,-0.384217 -0.24014,1.00857 -0.81646,0.624354 c 0,0 -2.25728,-0.528299 -2.44938,-0.672381 -0.19211,-0.144081 -1.10463,-0.960543 -1.10463,-0.960543 l -3.98625,1.440815 -0.86449,-0.528299 0.38421,-0.624353 -1.53686,0.67238 -1.00857,0.04803 -0.5283,-0.768434 -1.92109,-0.432245 -0.14408,0.33619 -1.92109,-0.288163 0.048,0.432245 -1.39279,0.768435 -2.01714,-0.09605 -0.24014,-1.056597 h -0.81646 l -1.00857,1.248706 -0.048,1.440815 0.67238,1.056598 -0.81646,0.38422 0.86449,1.44081 0.38422,1.29674 0.72041,0.57632 0.86449,-0.28816 0.048,0.96054 0.86449,0.48028 v -0.72041 l 0.5283,-0.91252 1.0566,0.72041 1.777,0.19211 0.48028,-0.72041 h 1.05659 l -0.0961,0.91252 0.24013,0.33619 0.19211,4.13033 -0.57632,0.91252 0.67238,0.86449 0.14408,1.92108 -0.048,0.43225 1.15265,1.15265 0.19211,0.5283 0.67238,0.28816 0.81646,1.87306 0.33619,0.19211 1.92109,2.54544 1.29673,0.5283 0.38422,1.48884 0.19211,1.24871 0.81646,1.29673 c 0,0 4.32245,-0.19211 5.66721,-1.777 1.34476,-1.5849 2.16122,-1.34476 2.16122,-1.34476 l 1.68095,-3.12177 -0.0961,-0.57633 0.5283,-0.81646 -0.048,-0.76843 0.48027,-1.77701 -0.43224,-0.28816 -0.38422,-1.00857 -1.00857,-0.57633 -0.5283,0.0961 -0.24014,-0.57633 h -0.76843 l -0.28816,0.67238 -1.44082,0.048 -0.57632,-1.44082 -0.62436,-0.33619 -0.24013,-0.5283 h -0.33619 l -0.0961,-0.96054 -1.20068,-1.82503 1.15265,-0.14408 0.86449,-0.62436 0.33619,2.06517 0.57633,1.0566 0.5283,0.19211 0.38422,0.67238 0.52829,-0.19211 0.57633,0.28816 0.48027,-1.39278 z"
   id="MIDDLE_EAST"
   inkscape:label="MIDDLE_EAST" /><path
   d="m 133.94777,99.272152 c -0.24014,-0.144081 -3.6981,-2.785575 -3.6981,-2.785575 l -0.28816,1.152652 -1.15265,-0.432245 -0.28816,-2.161222 -0.91252,-0.432245 0.048,-0.528299 0.57632,0.04803 0.048,-0.67238 -0.86449,-0.384217 -0.33619,-1.104625 0.24014,-0.768435 -0.33619,-0.288163 -0.81646,0.144082 -0.048,-0.480272 -0.48027,-0.384217 -0.0961,-1.536869 1.10463,-0.624354 0.33619,-0.960543 -0.33619,-1.248706 -1.53687,0.288163 -0.38422,0.912516 -0.5283,0.192109 -0.5283,-1.296734 -0.76843,-1.152652 0.14408,-0.912516 -0.67238,-1.056598 0.91252,-2.353331 1.53686,-0.576326 2.73755,-1.392788 2.01714,0.720408 0.86449,-1.248706 1.82504,-0.864489 0.86448,0.192108 0.57633,1.152652 1.34476,0.768435 -0.048,0.912516 0.96055,0.240136 0.14408,0.624353 2.11319,1.921087 1.63293,0.04803 0.86449,0.528299 1.48884,0.09605 0.91251,1.632924 -0.14408,0.816461 0.57633,2.689522 -0.76844,0.480271 -0.52829,1.680951 -1.63293,0.432245 -0.048,1.632923 1.05659,1.440815 -0.14408,1.632924 -1.63292,1.152652 -0.91252,-1.008571 -1.15265,-0.33619 -0.38422,1.200679 -1.34476,0.192109 -0.5283,0.960543 z"
   id="AFGHANISTAN"
   inkscape:label="AFGHANISTAN" /><path
   d="m 143.10885,85.308362 0.95089,-0.06792 -0.13584,-1.426334 0.74713,-0.882968 -0.13585,-0.611288 1.42634,-0.203761 -0.40752,-1.426334 0.95089,-0.135842 -0.27169,-1.833857 -1.76593,-1.833858 -1.15466,-0.339604 -0.0679,-2.037619 c 0,0 -0.47544,-0.747128 -1.01881,-0.135843 -0.54336,0.611286 -0.95089,-0.882967 -0.95089,-0.882967 l 1.01881,-1.154653 1.08673,-1.086731 -0.95088,-2.377223 -0.67921,0.06792 0.54336,-2.241384 -0.6792,-0.339603 -0.20377,-1.01881 -2.37722,-0.882967 0.54337,-1.290495 -0.40753,-1.358413 -0.81505,-0.13584 -0.47544,-2.03762 -1.49425,-1.969701 -0.88297,0.06792 -0.61129,-0.747127 -0.54336,0.815049 -0.54337,-1.833859 -0.0679,-0.815049 -0.95089,-0.882968 1.08673,-1.494255 -0.81505,-0.475443 -0.3396,-0.543367 -1.01881,0.06792 -0.74713,-0.271682 -0.20376,1.222571 -0.20376,0.543367 0.61128,0.679206 -0.54336,0.679207 0.40752,0.679206 0.74713,0.679207 -0.20376,0.815049 0.47544,3.396033 -1.69802,3.735636 0.33961,0.611285 -0.20376,0.950892 0.47544,3.056429 0.61129,0.543364 -0.81505,2.648908 1.90178,1.562174 -0.67921,1.154653 0.13584,2.24138 1.22258,0.611288 0.40752,1.222571 1.29049,0.407524 -0.20376,1.086732 1.22257,0.271682 2.03762,2.445144 1.83386,0.203761 1.22257,0.611288 1.01881,0.06792 z"
   id="URAL" /><path
   d="m 133.61158,99.080044 0.048,3.217816 0.91252,1.10463 -0.0961,2.25728 1.29674,0.86448 -0.28816,0.91252 0.48027,1.44082 1.2487,-0.048 0.24014,1.34476 0.86449,0.19211 0.72041,-0.14408 -0.28817,1.00857 1.15265,-0.0961 -0.67238,1.10463 0.5283,0.096 0.048,0.81646 0.72041,0.048 0.91251,-0.72041 0.14409,0.62436 -0.24014,2.40135 -0.0961,1.20068 0.43224,0.33619 -0.048,0.48028 0.43225,0.7204 0.43224,1.82504 0.5283,0.1921 0.57633,1.68095 0.57632,0.91252 0.48027,1.5849 0.33619,0.28816 0.81647,1.77701 0.62435,0.1921 0.19211,-0.67238 0.76843,-0.048 -0.5283,-0.91252 v -0.57633 l 0.86449,-0.24013 -0.096,-0.86449 0.24013,-2.16122 -0.1921,-1.24871 0.7204,-0.62435 0.24014,-1.77701 0.19211,-0.48027 -0.048,-0.76843 0.57633,-0.57633 0.26475,-1.70667 0.54336,-0.13584 v -1.49425 l 0.3396,-0.54337 1.08674,0.20377 0.47544,-1.22258 0.61129,-0.13584 0.23283,-0.92059 v -0.43224 l 0.81646,-0.28817 0.33619,-0.96054 0.5283,-0.28816 0.19211,-1.15265 0.62435,-0.72041 -1.20068,-2.20925 -2.1132,0.096 -0.52829,0.62436 -0.57633,-0.19211 -0.14408,-1.20068 -0.62435,-0.24014 -0.48028,0.38422 -0.96054,-0.38422 -0.33619,-0.91251 -0.5283,0.28816 -1.15265,-0.76844 h -0.81646 l -0.57633,-0.96054 -0.96054,0.14408 -0.0961,-0.38421 0.76844,-1.056602 -0.14408,-3.169793 -1.29674,0.04803 -0.76843,-0.144081 -0.24014,-1.152652 -1.05659,0.67238 -0.048,0.576326 -1.77701,1.056598 -0.91251,-0.864489 -0.96055,-0.480272 -0.57632,1.248706 -1.0566,0.384218 -0.81646,1.104624 z"
   id="INDIA" /><path
   d="m 145.71442,80.685639 1.34476,1.200679 1.00857,-0.240136 0.28817,-0.432244 1.39278,1.632923 -0.43224,1.248707 0.76843,0.384217 0.57633,-0.288163 0.57633,0.67238 0.7204,-2.497412 -0.86449,-0.864489 0.14409,-1.200679 0.14408,-0.528299 -0.28817,-0.576326 -0.76843,-0.384217 -0.28816,-0.864489 -0.33619,0.144081 -0.14408,-1.296733 -0.14409,-0.624354 0.57633,-0.528298 0.048,-1.20068 -0.72041,-0.288163 0.76843,-1.488842 h 0.91252 l 0.86449,-1.056597 0.33619,0.528298 1.72898,-0.624353 0.57632,0.720408 0.76844,-0.480272 0.19211,-1.200679 -0.57633,-1.632924 0.28816,-1.728978 0.81647,-1.34476 -0.43225,-2.353331 -0.43224,-0.336191 -0.57633,-1.969113 -0.38422,-0.144082 0.0961,-0.960543 0.48027,-0.33619 -0.24014,-0.672381 -2.11319,-1.152652 v -0.720407 h 0.96054 l -0.048,-0.720408 0.91252,-0.09605 0.81646,0.384217 1.20068,-0.528299 -0.33619,-1.296733 0.57633,-1.152652 -0.048,-0.432245 0.48027,-0.576325 0.0961,-1.104625 -0.48028,-0.192109 -0.52829,-1.584896 -1.68096,-1.008571 -2.16122,0.576326 -1.15265,-0.192109 -3.02571,1.969114 -0.19211,-0.768434 0.81646,-0.144082 0.62435,-0.816462 0.57633,-0.04803 v -0.528299 l 1.15265,-1.536869 -0.48027,-0.384217 -0.5283,-0.768435 -0.91251,0.67238 -0.81647,-0.624353 -0.28816,-0.576326 v -0.384217 l -0.81646,-0.144082 -1.44082,1.296734 -0.1921,-0.864489 -1.44082,0.912516 h -1.20068 l -2.8336,1.680951 -0.76844,-0.04803 -0.14408,0.960543 -1.15265,0.192109 -1.00857,0.960543 0.24014,0.528299 1.53687,0.768434 0.91251,-0.192108 -0.14408,0.720407 -0.91252,0.09605 -0.38421,-0.432245 h -0.76844 l -0.76843,-0.912516 -0.0961,0.624353 0.57633,1.344761 0.14408,0.816461 0.33619,0.576326 -0.19211,0.480272 h -0.24013 l -1.0566,-1.104625 -1.34476,-0.288163 -0.14408,0.624353 0.28816,0.384218 -0.19211,1.248706 0.43225,0.528299 v 0.480272 l 0.76843,0.432244 0.91252,-0.288163 0.76843,0.09605 -0.048,0.720408 -0.43224,0.67238 0.72041,1.248707 0.5283,2.209249 0.7204,0.144082 0.33619,1.104625 -0.24013,1.632923 2.35333,0.768435 0.24013,1.056597 0.38422,0.384218 -0.24013,2.065168 0.52829,0.04803 1.00858,2.113195 -1.87306,2.497413 0.38421,0.816462 1.10463,-0.240136 c 0,0 0.38422,1.536869 0.38422,1.777005 0,0.240136 0.81646,0.912516 0.81646,0.912516 l 1.44081,1.392788 0.76844,0.528299 0.048,1.921087 z"
   id="SIBERIA" /><path
   d="m 156.08829,65.653136 -0.5283,-2.257277 -0.38422,-0.144081 -0.43224,-2.017141 -0.5283,-0.240136 v -0.768435 l 0.81646,-0.67238 -0.28816,-0.624353 -2.40136,-1.152652 -0.048,-0.528299 0.96055,0.09605 0.048,-0.960543 0.91252,-0.04803 0.76843,0.528299 1.34477,-0.528299 -0.28817,-1.392788 0.76844,-1.104625 -0.33619,-0.432244 0.48027,-0.672381 0.24013,-1.200679 -0.48027,-0.04803 -0.62435,-1.825032 1.777,-1.728978 0.81647,0.288163 0.43224,1.440815 1.48884,0.960543 0.28817,1.104625 0.33619,-0.384217 v -0.432245 l 0.7204,-0.192109 0.33619,0.192109 0.96055,-1.00857 0.67238,0.240135 1.20068,-0.528298 1.20068,0.04803 0.24013,0.384217 1.10463,-0.624353 1.53687,0.384217 -0.5283,0.960544 1.39279,0.528298 0.1921,0.528299 0.5283,0.240136 0.14408,0.816462 -1.00857,0.04803 -0.24013,0.816462 c 0,0 -0.5283,0.240136 -0.76844,0.240136 -0.24013,0 -0.5283,1.34476 -0.5283,1.34476 l 0.0961,1.777005 1.10462,-0.144081 c 0,0 0.38422,1.248706 0.38422,1.440815 0,0.192109 -0.43224,1.248706 -0.43224,1.248706 l -0.5283,0.576326 -0.67238,-0.384217 -1.10463,0.04803 -0.48027,-1.248706 -1.24871,0.09605 -0.76843,1.440815 -0.28816,-0.528299 -0.67238,1.921087 0.14408,0.67238 -1.00857,0.720408 -0.48027,0.432244 -2.73755,-0.384217 0.14408,0.912516 h -1.34476 l -0.19211,-0.816462 -0.43225,1.87306 z"
   id="YAKUTSK" /><path
   d="m 81.708566,68.599877 1.562176,0.339604 1.969699,0.747127 1.698016,-0.611288 0.407525,-1.630095 0.747128,0.543367 1.290492,-0.06792 0.815049,-1.358413 0.950888,-0.271685 -0.611285,-2.17346 -0.747128,0.203761 0.271682,-0.882967 h -0.611285 v -0.815049 l -1.222574,-0.407525 -0.543364,0.407525 H 87.0743 v 0.747128 H 86.395093 V 63.70959 L 85.580044,63.573748 84.832917,64.185033 84.15371,63.369987 83.542425,64.7284 82.931139,63.84543 83.474503,63.166223 H 82.999058 L 82.319851,62.7587 81.980248,63.098303 81.23312,62.89454 l -0.339603,0.815049 -0.475443,0.475443 0.882967,1.018812 0.950892,-0.271684 -0.611288,1.01881 -1.222571,-0.06792 0.271682,0.882967 1.222573,-0.339603 0.203761,0.815049 z"
   id="ICELAND"
   inkscape:label="ICELAND"
   style="display:inline"
   transform="translate(0)" /><path
   d="m 162.4759,63.395859 0.91252,1.296734 -0.57633,3.361901 0.72041,1.680951 1.24871,0.04803 0.48027,1.632924 0.57632,1.344761 0.76844,-0.528299 1.96911,-0.09605 0.43225,0.864489 0.62435,0.336191 0.5283,1.296733 -0.33619,0.864489 0.38422,0.624353 -0.67238,2.88163 h -0.81647 l -0.24013,-0.720407 -0.81646,-0.192109 0.0961,-1.152652 -0.67238,-0.192109 -0.38422,-0.864489 -0.76843,0.04803 0.048,-1.104625 -0.62436,-0.576326 -0.5283,0.67238 -0.96054,0.192109 -0.48027,-0.528299 -0.86449,1.00857 0.38422,0.768435 -0.43225,1.200679 0.19211,1.200679 -0.43224,1.104625 -1.00857,-1.200679 H 160.843 l -0.48027,1.056598 -1.00857,-0.04803 -0.81646,0.528299 -0.76844,-0.768434 -1.10462,0.240135 -1.72898,-0.624353 -1.0566,0.672381 -0.96054,-0.624353 -1.92109,-0.09605 -0.86449,-1.104625 h -0.28816 l -0.43225,-1.777005 0.67238,-0.576326 0.0961,-0.960543 -0.81646,-0.432245 0.62435,-1.392787 0.86449,0.09605 0.86449,-1.056598 0.48027,0.480272 1.53687,-0.624353 0.86449,0.67238 0.67238,-0.432244 0.24013,-1.152652 -0.67238,-1.969114 1.15266,-3.073739 1.72897,-0.576326 0.67238,-1.873059 0.19211,0.912516 1.39279,-0.09605 -0.28816,-0.960544 z"
   id="IRKUTSK" /><path
   d="m 151.32725,84.900838 0.74713,-2.377223 -0.67921,-0.815049 0.0679,-1.833859 -0.54337,-0.815046 -0.74713,-0.339604 -0.13584,-1.018809 1.15465,1.22257 1.83386,0.271682 0.74713,0.543367 1.08673,-0.679206 1.76594,0.611285 1.22257,-0.339603 0.6792,0.679206 1.01881,-0.203761 h 0.67921 l 0.61129,-1.290494 0.54336,0.135842 0.47545,1.494256 1.01881,-1.290495 -0.61129,-1.494253 0.61129,-0.950891 -0.40753,-1.086731 0.88297,-0.611286 0.47545,0.475446 1.22257,-0.271682 0.20376,-0.679207 0.81505,0.747126 v 0.815049 h 0.61128 l 0.20377,0.950888 0.81504,0.271685 v 1.15465 l 0.81505,0.203763 0.0679,0.679207 1.2905,0.06792 -0.33961,0.543364 -0.40752,0.06792 0.74713,1.494253 0.88296,0.135842 0.40753,1.086732 1.01881,0.611285 -0.40753,1.086731 -0.13584,1.01881 -0.20376,0.88297 -0.47544,0.679207 1.42633,1.630095 0.95089,1.630095 0.47544,-0.06792 -0.27168,0.950891 -1.01881,1.901778 -0.6792,-0.407525 -0.0679,-1.562174 -0.40752,-0.475446 -0.74713,-0.203761 -0.88297,-1.086731 -1.15465,-0.407524 -0.47544,-0.950889 -1.76594,1.969699 0.61129,0.679206 h 0.88296 l 0.27169,0.407525 h 0.40752 l 0.47545,0.06792 0.74712,0.06792 0.20377,0.203761 -1.2905,1.358413 h -0.3396 l -2.51307,-0.407524 -0.88296,-0.611286 -0.95089,0.679207 -0.54337,-0.203761 -0.3396,-0.815049 -1.22257,0.203764 -0.88297,0.815046 -1.01881,-0.611285 -1.01881,-0.06792 -0.47545,-0.475443 -2.44514,0.06792 -0.88297,-0.747128 -0.88297,-0.950889 -0.81505,-0.135839 z"
   id="MONGOLIA" /><path
   d="m 155.2238,106.04398 1.15265,-0.96054 1.15265,0.76843 v 0.67238 l 1.82504,1.72898 h 0.76843 l 0.57633,-0.86449 0.96054,-0.19211 0.76844,-0.76843 0.76843,1.0566 0.96054,0.96054 0.48028,1.0566 0.86448,0.86449 0.86449,-1.34476 -0.28816,-0.28817 1.72898,-1.15265 0.28816,0.38422 0.19211,-1.44082 1.0566,-1.44081 0.096,-0.67238 0.96055,-0.0961 0.57632,-5.090875 -0.57632,-0.192109 0.0961,-1.632923 -0.0961,-0.864489 -0.19211,-0.864489 -0.76844,-0.09605 0.0961,-0.864489 -0.57633,-0.288163 -0.38422,-0.960543 -0.57632,-0.67238 v -0.480272 l -2.40136,-0.288163 -0.67238,-0.576326 -0.57633,0.576326 h -0.67238 l -0.48027,-0.960543 -1.34476,0.09605 -0.57633,0.864489 -1.34476,-0.480271 h -0.86449 l -0.48027,-0.768435 -2.78557,0.288163 -1.44082,-1.825032 -1.0566,-0.09606 -1.92108,-4.22639 -0.67238,-0.576326 -0.38422,0.192108 -0.76843,-0.480271 0.28816,-1.056598 -1.24871,-1.921087 -0.57632,0.576326 -0.96055,0.288163 -1.2487,-1.248706 0.38421,1.248706 -1.44081,0.384218 0.19211,0.480271 -0.96055,0.864489 0.28817,1.344761 -1.34476,0.480272 0.76843,2.977684 -0.76843,0.67238 -0.67238,1.728978 -1.63293,0.288163 0.19211,1.825032 0.57633,0.864489 0.38421,1.344761 1.0566,-0.480272 0.38422,1.344761 1.92109,0.09605 0.1921,3.169793 -0.86448,1.248709 0.48027,0.38421 0.38421,-0.67238 0.48028,1.15265 h 1.05659 l 0.76844,0.76844 0.57632,-0.38422 0.76844,1.0566 0.86449,0.48027 0.48027,-0.57632 0.67238,0.1921 v 1.24871 l 0.96054,0.48027 0.0961,-0.76843 2.11319,-0.28817 z"
   id="CHINA" /><path
   d="m 153.78299,111.85527 0.28816,0.5283 -0.14408,0.43224 1.96911,2.88163 h 1.00857 l 0.14408,0.48027 1.68095,0.48028 0.33619,1.00857 0.24014,0.33619 -0.24014,1.00857 0.38422,1.2487 0.33619,0.43225 -0.0961,1.34476 1.53687,2.25728 1.2487,0.048 0.38422,-1.00857 -0.57633,0.048 -0.76843,-2.01714 0.0961,-0.96054 -0.7204,-0.5283 0.5283,-0.57633 0.38421,-0.5283 0.72041,0.33619 0.33619,0.48027 h 0.62435 l 0.19211,0.81647 0.72041,1.777 1.29673,-1.10462 0.0961,-0.5283 1.05659,-1.5849 -0.048,-1.777 -0.14408,-1.10463 -0.43225,-0.48027 -0.86449,-2.44939 -1.15265,0.28817 0.14408,-1.48885 -0.048,-0.33619 -0.91252,0.0961 h -0.48027 v -2.20925 l 0.5283,-0.81646 0.57632,0.14408 0.43225,-0.048 -0.38422,-0.5283 -1.5849,-1.72898 -0.7204,0.67238 -1.20068,0.14409 -0.38422,0.96054 h -0.76844 l -1.96911,-1.87306 v -0.62435 l -1.10462,-0.76844 -1.48885,1.48884 -0.048,1.34476 -0.57633,0.28817 -0.43224,0.96054 -0.91252,0.19211 -0.048,1.0566 z"
   id="SIAM"
   inkscape:label="SIAM" /><path
   d="m 175.68337,61.762936 1.34476,0.768434 0.0961,1.440815 0.96054,0.192109 -0.38422,1.921087 -0.1921,0.864488 0.86448,4.802717 1.92109,1.632924 0.57633,-1.53687 -0.57633,-0.864489 0.76844,-1.440815 v -2.401358 l -0.76844,-1.632923 -0.38422,-0.672381 0.19211,-1.152652 2.40136,-0.09605 0.86449,-1.344761 0.57633,-1.056597 1.72897,-1.248707 -0.57632,-1.056597 -1.15265,-0.576326 -0.19211,-0.192109 0.76843,-0.576326 0.48027,0.288163 0.96055,-0.288163 0.57632,0.576326 0.19211,0.67238 1.34476,0.09605 1.24871,-0.672381 -0.48027,-2.209249 -1.15266,-0.09605 -0.096,-0.576326 -0.86449,-0.288163 -0.38422,0.480272 -0.76843,-0.288163 -0.19211,-0.768435 -1.92109,-1.440815 -0.57632,0.09605 -0.0961,-0.864489 h -1.2487 l -0.38422,-0.480272 -1.72898,-0.288163 -0.96054,-0.384217 -0.76844,1.056597 -1.05659,0.192109 -0.96055,-0.09605 -0.86449,-0.09605 -2.68952,-1.056597 -1.82503,0.288163 0.57633,0.576326 0.096,1.056597 -1.15265,0.192109 v 0.768435 h -0.57633 l -0.57632,0.576326 -0.19211,2.401358 0.96054,0.09605 0.76844,1.152652 -0.76844,1.825033 -0.96054,-0.09605 -1.34476,0.09605 -0.38422,-1.248707 -1.0566,-0.192108 -0.76843,1.536869 -0.28816,-0.67238 -0.67239,2.113195 0.38422,0.768435 -1.63292,0.960543 0.67238,1.440815 -0.57633,3.073738 0.76844,1.921087 1.44081,0.288163 0.86449,2.977684 0.86449,-0.67238 1.82503,-0.384217 1.15265,1.536869 0.28817,1.152652 -0.0961,0.67238 0.28817,1.152652 -0.57633,2.401359 0.28816,0.384217 -0.57632,0.67238 0.67238,1.152652 0.67238,0.192109 0.48027,1.056598 1.0566,0.768434 0.28816,0.576326 1.34476,-2.593467 -0.28816,-0.768434 0.38422,-1.632924 0.0961,-1.632924 -0.19211,-1.056597 -0.28816,-1.632924 -0.76844,-1.056598 0.19211,-2.785575 -0.57632,-0.192109 -0.76844,0.192109 -0.096,-0.576326 -0.76844,-0.384218 h -1.0566 l -0.86448,-0.384217 h -0.28817 v -0.576326 l 0.86449,-1.344761 v -1.056597 l 0.67238,-1.248706 1.53687,0.09605 0.57633,-0.480272 0.86449,0.384218 0.96054,-0.672381 1.92109,0.576326 0.28816,-0.768434 -0.67238,-0.09605 z"
   id="KAMCHATKA" /><path
   d="m 173.85834,93.89311 1.34476,0.432244 0.19211,1.104625 0.43224,-0.192109 0.48028,-1.777005 1.44081,-0.432244 0.24014,-0.480272 -0.43225,-0.288163 -0.24013,-1.248706 0.76843,0.384217 0.76844,-1.00857 0.38421,1.056597 0.57633,0.09605 0.43224,-0.192109 1.0566,-0.33619 -0.38422,-1.344761 0.48028,0.09605 0.38421,-0.432244 0.81647,-0.240136 0.096,-0.33619 0.72041,-0.864489 0.7204,-0.144082 c 0,0 0.28817,-0.912516 -0.048,-0.912516 -0.33619,0 -0.76844,-0.912516 -0.76844,-0.912516 l -0.33619,-1.584896 -0.24013,-0.240136 0.43224,-2.113196 -0.38422,-0.816461 -0.91251,-0.04803 -0.048,-0.432244 -1.20068,-0.144082 0.0961,-0.624353 -0.57633,-0.480271 0.048,-0.672381 2.25727,-0.04803 0.57633,-0.816462 -0.38422,-0.864489 0.33619,-0.432244 0.86449,0.288163 0.57633,-0.720408 -0.38422,-0.33619 -0.28816,-0.816462 -1.5849,-0.09605 -0.67238,0.384217 -1.48884,-0.240135 -1.44082,-1.248707 -0.43224,0.288163 1.15265,1.248707 0.48027,0.576326 0.24014,1.536869 -0.76844,0.192109 -0.048,1.632923 0.43224,0.528299 -0.048,0.240136 0.33619,0.67238 -0.28816,0.67238 0.28816,1.584897 0.33619,0.960543 0.048,0.672381 -0.67238,0.576326 -0.096,0.720407 -1.15266,0.480272 -0.33619,0.528299 0.14409,0.432244 -0.62436,1.632924 -0.62435,0.04803 -2.06517,3.409929 0.62435,0.480271 z"
   id="JAPAN"
   inkscape:label="JAPAN" /><path
   d="m 184.23221,165.40556 0.81646,-0.048 0.19211,-1.00857 0.62435,0.14408 0.72041,1.00857 0.5283,0.14409 1.00857,-1.72898 1.92109,0.096 v -1.0566 l 0.57632,-0.67238 -0.24013,-1.15265 0.96054,-1.58489 1.39279,-1.0566 -0.38422,-0.14408 -0.28816,-0.81647 h 1.05659 l 0.72041,-1.72897 0.0961,-3.50599 -0.33619,-0.86449 -0.43225,-0.43224 0.048,-0.62435 -0.91252,-0.76844 -0.28816,-0.67238 -0.048,-1.10462 -0.5283,-0.048 -0.48027,-1.72898 -0.67238,0.048 -0.48027,-0.48027 -0.81646,0.096 0.0961,-2.88163 -0.67238,-0.67238 0.19211,-1.53687 -0.48027,-0.096 -0.57633,0.91251 h -0.33619 l -0.76843,-3.31387 -0.48027,-0.24014 -0.33619,0.86449 0.33619,1.92109 -0.91252,0.91252 0.28816,0.86448 -0.33619,0.72041 -1.29673,0.0961 -0.86449,-1.5849 c 0,0 -1.00857,-0.048 -1.24871,0 -0.24013,0.048 -0.28816,-1.29673 -0.28816,-1.29673 l 1.00857,-1.39279 -0.43224,-0.57633 -1.48884,0.38422 -0.96055,-0.48027 -0.62435,0.67238 -1.10463,-0.24014 -1.05659,1.10463 -0.38422,1.87306 -0.14408,9.74951 8.06856,0.19211 -0.14408,11.04625 0.38422,0.28816 z"
   id="EAST_AUSTRAL"
   transform="translate(0)"
   inkscape:label="EAST_AUSTRAL" /><path
   d="m 164.34896,150.90136 -0.096,1.20067 -0.86449,-0.14408 -0.28816,1.15266 0.48027,1.39278 0.72041,0.91252 -0.19211,1.63292 1.10462,1.20068 -0.048,1.24871 -0.38421,0.91251 -0.5283,0.96055 1.48884,1.0566 c 0,0 2.40136,0.048 3.69809,-1.15266 1.29674,-1.20068 2.35333,-0.96054 2.35333,-0.96054 l 0.48027,0.5283 0.81647,-0.14408 -0.0961,-0.5283 0.33619,-0.96054 1.0566,-0.19211 0.86449,-0.43225 1.00857,-0.48027 2.68952,0.24014 c 0,0 1.44082,3.07374 2.16122,1.63292 0.72041,-1.44081 1.24871,-1.15265 1.24871,-1.15265 l -0.19211,1.29673 -1.15265,1.15265 0.24013,0.38422 0.86449,-0.67238 0.33619,0.48027 -0.096,0.81646 0.28816,0.19211 v 1.15265 l 1.48884,1.87306 0.19211,-2.40135 -0.38421,-0.24014 0.33619,-11.38244 -8.16462,-0.048 0.048,-9.5574 -1.20068,-0.91252 -1.34476,1.00857 -0.19211,0.86449 -1.20068,0.14408 -0.14408,0.96055 -0.57633,-0.48027 -0.67238,1.05659 -1.0566,0.14408 -0.048,1.24871 -1.777,1.00857 -1.34476,-0.24013 -1.48884,1.63292 -1.15266,0.14408 -0.33619,1.5849 -0.14408,0.91251 z"
   id="WEST_AUSTRALIA"
   inkscape:label="WEST_AUSTRALIA" /><g
   id="INDONESIA"
   style="display:inline"><path
     d="m 165.26148,138.12613 -1.82503,0.19211 -1.0566,-0.57633 -1.39279,-1.0566 0.19211,-1.05659 -0.76844,-0.81646 v -1.15266 l -0.48027,-0.0961 0.96055,-0.76844 -0.5283,-0.7204 3.55401,-2.73755 0.38422,-0.96055 0.7204,-0.38421 0.19211,-1.5849 2.30531,1.0566 0.14408,-0.0961 0.33619,1.92109 -0.91252,0.86449 0.48027,2.20925 -0.24013,1.39279 -1.24871,0.38421 -0.28816,0.81647 0.62435,0.76843 -0.14408,1.29673 z"
     id="INDONESIA4" /><path
     d="m 167.66284,139.90313 0.96054,-1.92108 0.72041,1.34476 0.62435,0.62435 0.76844,-0.86449 -0.43225,-0.57632 -0.5283,-1.96912 -0.38422,0.14408 -0.096,-1.10462 h 1.00857 l 0.5283,-0.76843 -1.68095,-0.3362 v -0.48027 l 1.39279,0.14408 0.62435,-0.33619 0.24014,-0.81646 0.57632,-0.33619 -0.33619,-0.62435 h -0.62435 l -0.57633,0.81646 -1.68095,-0.0961 -1.2487,0.91251 0.28816,1.0566 -0.33619,0.86449 v 0.81646 l -0.33619,0.33619 -0.048,0.76844 0.48027,0.28816 -0.5283,0.62435 0.28817,0.57633 z"
     id="INDONESIA3" /><path
     d="m 168.28719,142.92885 0.76843,-0.14409 -0.048,-1.20067 -1.10463,-0.28817 -1.44081,-0.5283 -2.73755,-0.24013 -1.72898,1.0566 -0.19211,0.76843 1.68095,0.28816 0.5283,0.14408 1.48884,-0.52829 z"
     id="INDONESIA2" /><path
     d="m 159.73835,141.82422 1.39279,-0.048 v -0.7204 l 0.86449,-0.38422 0.24014,-0.91252 -0.38422,-1.34476 -1.20068,-0.19211 0.048,-0.96054 -0.57633,-0.72041 h -0.33619 l -0.5283,-1.05659 0.19211,-0.48028 -0.19211,-1.87306 -0.48027,0.28817 -0.67238,-0.14408 -0.48027,-1.15266 -0.72041,0.72041 0.19211,-1.2487 h -0.38422 l -0.19211,-0.3362 -0.67238,0.3362 -1.10462,-1.82504 -0.91252,0.0961 -0.91251,-0.62436 -0.67238,0.19211 0.33619,1.77701 1.72897,1.53687 0.62436,1.15265 0.62435,1.20068 0.24014,1.53687 h 0.5283 l 1.777,2.16122 -0.19211,0.86449 1.48884,1.29673 0.5283,0.048 z"
     id="INDONESIA1" /></g><path
   d="m 172.27344,129.049 1.53687,-1.15266 -0.96054,-0.28816 -0.5283,-1.15265 -0.57632,-0.38422 0.67238,-1.63292 1.05659,-0.33619 1.15266,0.7204 0.52829,-0.096 0.43225,0.38422 -0.0961,1.29673 0.67239,0.72041 0.52829,-0.86449 -0.048,-1.20068 1.34476,-0.24014 0.57632,-0.24013 0.96055,0.67238 1.15265,-0.048 0.67238,1.63293 2.97768,1.29673 v 1.0566 h -0.33619 l 2.06517,1.29673 0.33619,0.72041 -1.10462,0.28816 0.7204,1.53687 0.19211,0.76843 0.38422,0.28817 0.24014,1.15265 -1.00857,0.28816 -0.62436,-0.5283 -0.86449,0.14409 -0.48027,-1.24871 -1.58489,-0.72041 0.1921,0.81646 -0.86449,0.38422 0.14409,0.33619 -2.16123,-0.24014 -0.43224,0.24014 -1.96911,-1.20068 -0.76844,-0.048 -0.14408,-0.91251 0.43224,-0.62435 0.14409,-1.63293 -0.62436,-0.28816 -0.14408,-1.00857 -1.10462,0.38422 -1.34476,-0.91252 z"
   id="NEW_GUINEA"
   inkscape:label="NEW_GUINEA" /><circle
   id="BRAZIL_C"
   cx="65.58606"
   cy="122.74525"
   r="2"
   inkscape:label="BRAZIL_C" />
	   <text
   id="BRAZIL_T"
   x="65.58606"
   y="122.74525"
   text-anchor="middle"
   fill="white"
   font-size="2"
   font-family="sans-serif">1</text>
	   <circle
   id="ARGENTINA_C"
   cx="51.39064"
   cy="145.49867"
   r="2"
   inkscape:label="ARGENTINA_C" />
	   <text
   id="ARGENTINA_T"
   x="51.39064"
   y="145.49867"
   text-anchor="middle"
   fill="white"
   font-size="2"
   font-family="sans-serif">1</text>
	   <circle
   id="PERU_C"
   cx="50.507671"
   cy="129.94484"
   r="2"
   inkscape:label="PERU_C" />
	   <text
   id="PERU_T"
   x="50.507671"
   y="129.94484"
   text-anchor="middle"
   fill="white"
   font-size="2"
   font-family="sans-serif">1</text>
	   <circle
   id="VENEZUELA_C"
   cx="47.315399"
   cy="111.81002"
   r="2"
   inkscape:label="VENEZUELA_C" />
	   <text
   id="VENEZUELA_T"
   x="47.315399"
   y="111.81002"
   text-anchor="middle"
   fill="white"
   font-size="2"
   font-family="sans-serif">1</text>
	   <circle
   id="CARIBBEAN_C"
   cx="34.002949"
   cy="101.28232"
   r="2"
   inkscape:label="CARIBBEAN_C" />
	   <text
   id="CARIBBEAN_T"
   x="34.002949"
   y="101.28232"
   text-anchor="middle"
   fill="white"
   font-size="2"
   font-family="sans-serif">1</text>
	   <circle
   id="EAST_US_C"
   cx="47.179558"
   cy="88.513237"
   r="2"
   inkscape:label="EAST_US_C" />
	   <text
   id="EAST_US_T"
   x="47.179558"
   y="88.513237"
   text-anchor="middle"
   fill="white"
   font-size="2"
   font-family="sans-serif">1</text>
	   <circle
   id="USA_WEST_C"
   cx="31.489883"
   cy="83.962555"
   r="2"
   inkscape:label="USA_WEST_C" />
	   <text
   id="USA_WEST_T"
   x="31.489883"
   y="83.962555"
   text-anchor="middle"
   fill="white"
   font-size="2"
   font-family="sans-serif">1</text>
	   <circle
   id="QUEBEC_C"
   cx="57.808769"
   cy="72.532089"
   r="2"
   inkscape:label="QUEBEC_C" />
	   <text
   id="QUEBEC_T"
   x="57.808769"
   y="72.532089"
   text-anchor="middle"
   fill="white"
   font-size="2"
   font-family="sans-serif">1</text>
	   <circle
   id="ONTARIO_C"
   cx="44.457218"
   cy="73.204468"
   r="2"
   inkscape:label="ONTARIO_C" />
	   <text
   id="ONTARIO_T"
   x="44.457218"
   y="73.204468"
   text-anchor="middle"
   fill="white"
   font-size="2"
   font-family="sans-serif">1</text>
	   <circle
   id="ALBERTA_C"
   cx="31.393829"
   cy="71.283379"
   r="2"
   inkscape:label="ALBERTA_C" />
	   <text
   id="ALBERTA_T"
   x="31.393829"
   y="71.283379"
   text-anchor="middle"
   fill="white"
   font-size="2"
   font-family="sans-serif">1</text>
	   <circle
   id="NORTHWEST_C"
   cx="36.004436"
   cy="60.429237"
   r="2"
   inkscape:label="NORTHWEST_C" />
	   <text
   id="NORTHWEST_T"
   x="36.004436"
   y="60.429237"
   text-anchor="middle"
   fill="white"
   font-size="2"
   font-family="sans-serif">1</text>
	   <circle
   id="ALASKA_C"
   cx="16.601461"
   cy="59.564747"
   r="2"
   inkscape:label="ALASKA_C" />
	   <text
   id="ALASKA_T"
   x="16.601461"
   y="59.564747"
   text-anchor="middle"
   fill="white"
   font-size="2"
   font-family="sans-serif">1</text>
	   <circle
   id="GREENLAND_C"
   cx="69.719505"
   cy="53.129108"
   r="2"
   inkscape:label="GREENLAND_C" />
	   <text
   id="GREENLAND_T"
   x="69.719505"
   y="53.129108"
   text-anchor="middle"
   fill="white"
   font-size="2"
   font-family="sans-serif">1</text>
	   <circle
   id="GREAT_BRITAIN_C"
   cx="84.125656"
   cy="82.510086"
   r="2"
   inkscape:label="GREAT_BRITAIN_C"
   />
   	<text
   id="GREAT_BRITAIN_T"
   x="84.125656"
   y="82.510086"
   text-anchor="middle"
   fill="white"
   font-size="2"
   font-family="sans-serif">1</text>
   <circle
   id="ICELAND_C"
   cx="86.046745"
   cy="66.180847"
   r="2"
   inkscape:label="ICELAND_C"
    />
	<text
   id="ICELAND_T"
   x="86.046745"
   y="66.180847"
   text-anchor="middle"
   fill="white"
   font-size="2"
   font-family="sans-serif">1</text>
	<circle
   id="EU_WEST_C"
   cx="85.086205"
   cy="101.72095"
   r="2"
   inkscape:label="EU_WEST"
   inkscape:transform-center-x="2.1131954"
   inkscape:transform-center-y="-1.728978" />
   	<text
   id="EU_WEST_T"
   x="85.086205"
   y="101.72095"
   text-anchor="middle"
   fill="white"
   font-size="2"
   font-family="sans-serif">1</text>
   <circle
   id="EU_SOUTH_C"
   cx="102.95232"
   cy="95.381363"
   r="2"
   inkscape:label="ITA"
  
   inkscape:transform-center-x="2.1131954"
   inkscape:transform-center-y="-1.728978" />
   <text
   id="EU_SOUTH_T"
   x="102.95232"
   y="95.381363"
   text-anchor="middle"
   fill="white"
   font-size="2"
   font-family="sans-serif">1</text>
   
   <circle
   id="NORTH_EU_C"
   cx="99.302254"
   cy="83.086411"
   r="2"
   inkscape:label="ALE"
   
   inkscape:transform-center-x="2.1131954"
   inkscape:transform-center-y="-1.728978" />
      <text
   id="NORTH_EU_T"
   x="99.302254"
   y="83.086411"
   text-anchor="middle"
   fill="white"
   font-size="2"
   font-family="sans-serif">1</text>
   
   <circle
   id="NORTH_AFRICA_C"
   cx="90.273148"
   cy="120.93182"
   r="2"
   inkscape:label="NOTAFRI"
   
   inkscape:transform-center-x="2.1131954"
   inkscape:transform-center-y="-1.728978" />
         <text
   id="NORTH_AFRICA_T"
   x="90.273148"
   y="120.93182"
   text-anchor="middle"
   fill="white"
   font-size="2"
   font-family="sans-serif">1</text>
   
   <circle
   id="EGYPT_C"
   cx="108.52347"
   cy="114.97646"
   r="2"
   inkscape:label="EGY"
   
   inkscape:transform-center-x="2.1131954"
   inkscape:transform-center-y="-1.728978" />
   <text
   id="EGYPT_T"
   x="108.52347"
   y="114.97646"
   text-anchor="middle"
   fill="white"
   font-size="2"
   font-family="sans-serif">1</text>
   
   <circle
   id="CONGO_C"
   cx="107.75504"
   cy="136.30052"
   r="2"
   inkscape:label="CONGO_C"

   inkscape:transform-center-x="2.1131954"
   inkscape:transform-center-y="-1.728978" />
   
   
   <text
   id="CONGO_T"
   x="107.75504"
   y="136.30052"
   text-anchor="middle"
   fill="white"
   font-size="2"
   font-family="sans-serif">1</text>
   
   <circle
   id="EAST_AFRICA_C"
   cx="115.43939"
   cy="126.11877"
   r="2"
   inkscape:label="TANZA"

   inkscape:transform-center-x="2.1131954"
   inkscape:transform-center-y="-1.728978" />
      <text
   id="EAST_AFRICA_T"
   x="115.43939"
   y="126.11877"
   text-anchor="middle"
   fill="white"
   font-size="2"
   font-family="sans-serif">1</text>
   
   <circle
   id="SOUTH_AFRICA_C"
   cx="109.09981"
   cy="153.97452"
   r="2"
   inkscape:label="SUAFR"
  
   inkscape:transform-center-x="2.1131954"
   inkscape:transform-center-y="-1.728978" />
   
       <text
   id="SOUTH_AFRICA_T"
   x="109.09981"
   y="153.97452"
   text-anchor="middle"
   fill="white"
   font-size="2"
   font-family="sans-serif">1</text>
   
   <circle
   id="MADAGASCAR_C"
   cx="126.38959"
   cy="154.93506"
   r="2"
   inkscape:label="MADAG"
   
   inkscape:transform-center-x="2.1131954"
   inkscape:transform-center-y="-1.728978" />
   
        <text
   id="MADAGASCAR_T"
   x="126.38959"
   y="154.93506"
   text-anchor="middle"
   fill="white"
   font-size="2"
   font-family="sans-serif">1</text>
   
   <circle
   id="WEST_AUSTRALIA_C"
   cx="169.42194"
   cy="153.20609"
   r="2"
   inkscape:label="WES-AUS"

   inkscape:transform-center-x="2.1131954"
   inkscape:transform-center-y="-1.728978" />
   
   <text
   id="WEST_AUSTRALIA_T"
   x="169.42194"
   y="153.20609"
   text-anchor="middle"
   fill="white"
   font-size="2"
   font-family="sans-serif">1</text>
   
   <circle
   id="EAST_AUSTRAL_C"
   cx="187.86436"
   cy="151.47711"
   r="2"
   inkscape:label="EAS-AUS"
   
   inkscape:transform-center-x="2.1131954"
   inkscape:transform-center-y="-1.728978" />
   
   <text
   id="EAST_AUSTRAL_T"
   x="187.86436"
   y="151.47711"
   text-anchor="middle"
   fill="white"
   font-size="2"
   font-family="sans-serif">1</text>
   
   
   <circle
   id="NEW_GUINEA_C"
   cx="180.18002"
   cy="129.76883"
   r="2"
   inkscape:label="GUINE"

   inkscape:transform-center-x="2.1131954"
   inkscape:transform-center-y="-1.728978" />
   
      <text
   id="NEW_GUINEA_T"
   x="180.18002"
   y="129.76883"
   text-anchor="middle"
   fill="white"
   font-size="2"
   font-family="sans-serif">1</text>
   
   <circle
   id="INDONESIA_C"
   cx="163.85078"
   cy="133.80312"
   r="2"
   inkscape:label="INDO"
   
   inkscape:transform-center-x="2.1131954"
   inkscape:transform-center-y="-1.728978" />
         <text
   id="INDONESIA_T"
   x="163.85078"
   y="133.80312"
   text-anchor="middle"
   fill="white"
   font-size="2"
   font-family="sans-serif">1</text>
   
   
   <circle
   id="INDIA_C"
   cx="145.60046"
   cy="110.36586"
   r="2"
   inkscape:label="INDIA"
   
   inkscape:transform-center-x="2.1131954"
   inkscape:transform-center-y="-1.728978" />
   
            <text
   id="INDIA_T"
   x="145.60046"
   y="110.36586"
   text-anchor="middle"
   fill="white"
   font-size="2"
   font-family="sans-serif">1</text>
   
   <circle
   id="SIAM_C"
   cx="160.96916"
   cy="114.40014"
   r="2"
   inkscape:label="SIAM"
   
   inkscape:transform-center-x="2.1131954"
   inkscape:transform-center-y="-1.728978" />
   
               <text
   id="SIAM_T"
   x="160.96916"
   y="114.40014"
   text-anchor="middle"
   fill="white"
   font-size="2"
   font-family="sans-serif">1</text>
   
   <circle
   id="MIDDLE_EAST_C"
   cx="122.35532"
   cy="111.3264"
   r="2"
   inkscape:label="ARAB"
   
   inkscape:transform-center-x="2.1131954"
   inkscape:transform-center-y="-1.728978" />
   
                  <text
   id="MIDDLE_EAST_T"
   x="122.35532"
   y="111.3264"
   text-anchor="middle"
   fill="white"
   font-size="2"
   font-family="sans-serif">1</text>
   
   <circle
   id="UKRAINE_C"
   cx="116.39996"
   cy="76.554733"
   r="2"
   inkscape:label="RUS"
   
   inkscape:transform-center-x="2.1131954"
   inkscape:transform-center-y="-1.728978" />
   
                     <text
   id="UKRAINE_T"
   x="116.39996"
   y="76.554733"
   text-anchor="middle"
   fill="white"
   font-size="2"
   font-family="sans-serif">1</text>
   
   <circle
   id="ESCANDINAVIA_C"
   cx="101.79971"
   cy="62.722908"
   r="2"
   inkscape:label="NOR"
   
   inkscape:transform-center-x="2.1131954"
   inkscape:transform-center-y="-1.728978" />
   
                        <text
   id="ESCANDINAVIA_T"
   x="101.79971"
   y="62.722908"
   text-anchor="middle"
   fill="white"
   font-size="2"
   font-family="sans-serif">1</text>
   
   <circle
   id="KAMCHATKA_C"
   cx="176.33788"
   cy="58.112301"
   r="2"
   inkscape:label="TOKA-ALASKA"
   
   inkscape:transform-center-x="2.1131954"
   inkscape:transform-center-y="-1.728978" />
   
                           <text
   id="KAMCHATKA_T"
   x="176.33788"
   y="58.112301"
   text-anchor="middle"
   fill="white"
   font-size="2"
   font-family="sans-serif">1</text>
   
   <circle
   id="JAPAN_C"
   cx="181.3327"
   cy="85.775948"
   r="2"
   inkscape:label="JAPA"

   inkscape:transform-center-x="2.1131954"
   inkscape:transform-center-y="-1.728978" />
   
   <text
   id="JAPAN_T"
   x="181.3327"
   y="85.775948"
   text-anchor="middle"
   fill="white"
   font-size="2"
   font-family="sans-serif">1</text>
   
   
   <circle
   id="CHINA_C"
   cx="156.35858"
   cy="96.918251"
   r="2"
   inkscape:label="CHINA"
   
   inkscape:transform-center-x="2.1131954"
   inkscape:transform-center-y="-1.728978" />
   
      <text
   id="CHINA_T"
   x="156.35858"
   y="96.918251"
   text-anchor="middle"
   fill="white"
   font-size="2"
   font-family="sans-serif">1</text>
   
   
   <circle
   id="AFGHANISTAN_C"
   cx="134.45819"
   cy="89.618118"
   r="2"
   inkscape:label="AFGA"
   
   inkscape:transform-center-x="2.1131954"
   inkscape:transform-center-y="-1.728978" />
   
      
   <text
   id="AFGHANISTAN_T"
   x="134.45819"
   y="89.618118"
   text-anchor="middle"
   fill="white"
   font-size="2"
   font-family="sans-serif">1</text>
   
   <circle
   id="MONGOLIA_C"
   cx="161.92973"
   cy="85.583839"
   r="2"
   inkscape:label="MONGOLIA"
   
   inkscape:transform-center-x="2.1131954"
   inkscape:transform-center-y="-1.728978" />
   
   <text
   id="MONGOLIA_T"
   x="161.92973"
   y="85.583839"
   text-anchor="middle"
   fill="white"
   font-size="2"
   font-family="sans-serif">1</text>
   
   
   <circle
   id="URAL_C"
   cx="137.33983"
   cy="71.367798"
   r="2"
   inkscape:label="UR"
 
   inkscape:transform-center-x="2.1131954"
   inkscape:transform-center-y="-1.728978" />
   
      <text
   id="URAL_T"
   x="137.33983"
   y="71.367798"
   text-anchor="middle"
   fill="white"
   font-size="2"
   font-family="sans-serif">1</text>
   
   <circle
   id="SIBERIA_C"
   cx="145.35353"
   cy="59.471733"
   r="2"
   inkscape:label="SIBERIA_C"

   inkscape:transform-center-x="2.1131954"
   inkscape:transform-center-y="-1.728978" />
   
         <text
   id="SIBERIA_T"
   x="145.35353"
   y="59.471733"
   text-anchor="middle"
   fill="white"
   font-size="2"
   font-family="sans-serif">1</text>
   
   
   <circle
   id="IRKUTSK_C"
   cx="157.78896"
   cy="74.288406"
   r="2"
   inkscape:label="URKUTSU_C"
   
   inkscape:transform-center-x="2.1131954"
   inkscape:transform-center-y="-1.728978" />
   <text
   id="IRKUTSK_T"
   x="157.78896"
   y="74.288406"
   text-anchor="middle"
   fill="white"
   font-size="2"
   font-family="sans-serif">1</text>
   
   
   <circle
   id="YAKUTSK_C"
   cx="160.28636"
   cy="56.998627"
   r="2"
   inkscape:label="YAKUTSK_C"

   inkscape:transform-center-x="2.1131954"
   inkscape:transform-center-y="-1.728978" />
   
      <text
   id="YAKUTSK_T"
   x="160.28636"
   y="56.998627"
   text-anchor="middle"
   fill="white"
   font-size="2"
   font-family="sans-serif">1</text>
   
   </g></svg>
